<?xml version="1.0" encoding="UTF-8" standalone="no"?><svg xmlns="http://www.w3.org/2000/svg" xmlns:xlink="http://www.w3.org/1999/xlink" contentScriptType="application/ecmascript" contentStyleType="text/css" height="928px" preserveAspectRatio="none" style="width:965px;height:928px;" version="1.1" viewBox="0 0 965 928" width="965px" zoomAndPan="magnify"><defs><filter height="300%" id="fv1lrzt" width="300%" x="-1" y="-1"><feGaussianBlur result="blurOut" stdDeviation="2.0"/><feColorMatrix in="blurOut" result="blurOut2" type="matrix" values="0 0 0 0 0 0 0 0 0 0 0 0 0 0 0 0 0 0 .4 0"/><feOffset dx="4.0" dy="4.0" in="blurOut2" result="blurOut3"/><feBlend in="SourceGraphic" in2="blurOut3" mode="normal"/></filter></defs><g><!--cluster Location Fysio--><polygon fill="#FFFFFF" filter="url(#fv1lrzt)" points="300.301,126,419.301,126,426.301,148.2969,537.301,148.2969,537.301,392,300.301,392,300.301,126" style="stroke: #000000; stroke-width: 2.0;"/><line style="stroke: #000000; stroke-width: 2.0;" x1="300.301" x2="426.301" y1="148.2969" y2="148.2969"/><text fill="#000000" font-family="sans-serif" font-size="14" font-weight="bold" lengthAdjust="spacingAndGlyphs" textLength="113" x="304.301" y="140.9951">Location Fysio</text><!--cluster tablet--><polygon fill="#FFFFFF" filter="url(#fv1lrzt)" points="332.301,187,342.301,177,505.301,177,505.301,275,495.301,285,332.301,285,332.301,187" style="stroke: #000000; stroke-width: 2.0;"/><line style="stroke: #000000; stroke-width: 2.0;" x1="495.301" x2="504.301" y1="187" y2="178"/><line style="stroke: #000000; stroke-width: 2.0;" x1="332.301" x2="495.301" y1="187" y2="187"/><line style="stroke: #000000; stroke-width: 2.0;" x1="495.301" x2="495.301" y1="187" y2="285"/><text fill="#000000" font-family="sans-serif" font-size="14" font-weight="bold" lengthAdjust="spacingAndGlyphs" textLength="49" x="390.301" y="202.9951">Tablet</text><!--cluster Location Ruijtenberg--><polygon fill="#FFFFFF" filter="url(#fv1lrzt)" points="151.301,557,320.301,557,327.301,579.2969,367.301,579.2969,367.301,921,151.301,921,151.301,557" style="stroke: #000000; stroke-width: 2.0;"/><line style="stroke: #000000; stroke-width: 2.0;" x1="151.301" x2="327.301" y1="579.2969" y2="579.2969"/><text fill="#000000" font-family="sans-serif" font-size="14" font-weight="bold" lengthAdjust="spacingAndGlyphs" textLength="163" x="155.301" y="571.9951">Location Ruijtenberg</text><!--cluster S2--><polygon fill="#FFFFFF" filter="url(#fv1lrzt)" points="183.301,618,193.301,608,335.301,608,335.301,879,325.301,889,183.301,889,183.301,618" style="stroke: #000000; stroke-width: 2.0;"/><line style="stroke: #000000; stroke-width: 2.0;" x1="325.301" x2="334.301" y1="618" y2="609"/><line style="stroke: #000000; stroke-width: 2.0;" x1="183.301" x2="325.301" y1="618" y2="618"/><line style="stroke: #000000; stroke-width: 2.0;" x1="325.301" x2="325.301" y1="618" y2="889"/><text fill="#000000" font-family="sans-serif" font-size="14" font-weight="bold" lengthAdjust="spacingAndGlyphs" textLength="53" x="228.801" y="633.9951">Server</text><!--cluster MySQL--><path d="M223.301,765 C223.301,755 263.301,755 263.301,755 C263.301,755 303.301,755 303.301,765 L303.301,847 C303.301,857 263.301,857 263.301,857 C263.301,857 223.301,857 223.301,847 L223.301,765 " fill="#FFFFFF" filter="url(#fv1lrzt)" style="stroke: #000000; stroke-width: 2.0;"/><path d="M223.301,765 C223.301,775 263.301,775 263.301,775 C263.301,775 303.301,775 303.301,765 " fill="none" style="stroke: #000000; stroke-width: 2.0;"/><text fill="#000000" font-family="sans-serif" font-size="14" font-weight="bold" lengthAdjust="spacingAndGlyphs" textLength="53" x="236.801" y="788.9951">MySQL</text><!--entity router--><rect fill="#FEFECE" filter="url(#fv1lrzt)" height="36.2969" style="stroke: #A80036; stroke-width: 1.5;" width="62" x="337.301" y="340"/><rect fill="#FEFECE" height="5" style="stroke: #A80036; stroke-width: 1.5;" width="10" x="332.301" y="345"/><rect fill="#FEFECE" height="5" style="stroke: #A80036; stroke-width: 1.5;" width="10" x="332.301" y="366.2969"/><text fill="#000000" font-family="sans-serif" font-size="14" lengthAdjust="spacingAndGlyphs" textLength="42" x="347.301" y="362.9951">router</text><!--entity webbrowser--><rect fill="#FEFECE" filter="url(#fv1lrzt)" height="36.2969" style="stroke: #A80036; stroke-width: 1.5;" width="105" x="375.801" y="225"/><rect fill="#FEFECE" height="5" style="stroke: #A80036; stroke-width: 1.5;" width="10" x="370.801" y="230"/><rect fill="#FEFECE" height="5" style="stroke: #A80036; stroke-width: 1.5;" width="10" x="370.801" y="251.2969"/><text fill="#000000" font-family="sans-serif" font-size="14" lengthAdjust="spacingAndGlyphs" textLength="85" x="385.801" y="247.9951">webbrowser</text><!--entity internet--><path d="M219.801,471.5 C219.801,468.5 221.801,466.5 224.801,466.5 C227.801,466.5 229.801,468.5 229.801,471.5 C229.801,468.5 231.801,466.5 234.801,466.5 C237.801,466.5 239.801,468.5 239.801,471.5 C239.801,468.5 241.801,466.5 244.801,466.5 C247.801,466.5 249.801,468.5 249.801,471.5 C249.801,468.5 251.801,466.5 254.801,466.5 C257.801,466.5 259.801,468.5 259.801,471.5 C259.801,468.5 261.801,466.5 264.801,466.5 C267.801,466.5 269.801,468.5 269.801,471.5 C269.801,468.5 271.801,466.5 274.801,466.5 C277.801,466.5 279.801,468.5 279.801,471.5 C279.801,468.5 281.801,466.5 284.801,466.5 C287.801,466.5 289.801,468.5 289.801,471.5 C289.801,468.5 291.801,466.5 294.801,466.5 C297.801,466.5 299.801,468.5 299.801,471.5 C299.801,468.5 301.801,466.5 304.801,466.5 C307.801,466.5 309.801,468.5 309.801,471.5 C309.801,468.5 311.801,466.5 314.801,466.5 C317.801,466.5 319.801,468.5 319.801,471.5 C322.801,471.5 324.801,473.5 324.801,476.5 C324.801,479.5 322.801,481.5 319.801,481.5 C322.801,481.5 324.801,483.5 324.801,486.5 C324.801,489.5 322.801,491.5 319.801,491.5 C319.801,494.5 316.801,496.5 314.801,496.5 C311.801,496.5 309.801,494.5 309.801,491.5 C309.801,494.5 306.801,496.5 304.801,496.5 C301.801,496.5 299.801,494.5 299.801,491.5 C299.801,494.5 296.801,496.5 294.801,496.5 C291.801,496.5 289.801,494.5 289.801,491.5 C289.801,494.5 286.801,496.5 284.801,496.5 C281.801,496.5 279.801,494.5 279.801,491.5 C279.801,494.5 276.801,496.5 274.801,496.5 C271.801,496.5 269.801,494.5 269.801,491.5 C269.801,494.5 266.801,496.5 264.801,496.5 C261.801,496.5 259.801,494.5 259.801,491.5 C259.801,494.5 256.801,496.5 254.801,496.5 C251.801,496.5 249.801,494.5 249.801,491.5 C249.801,494.5 246.801,496.5 244.801,496.5 C241.801,496.5 239.801,494.5 239.801,491.5 C239.801,494.5 236.801,496.5 234.801,496.5 C231.801,496.5 229.801,494.5 229.801,491.5 C229.801,494.5 226.801,496.5 224.801,496.5 C221.801,496.5 219.801,494.5 219.801,491.5 C216.801,491.5 214.801,489.5 214.801,486.5 C214.801,483.5 216.801,481.5 219.801,481.5 C216.801,481.5 214.801,479.5 214.801,476.5 C214.801,473.5 216.801,471.5 219.801,471.5 " fill="#FFFFFF" filter="url(#fv1lrzt)" style="stroke: #000000; stroke-width: 1.5;"/><text fill="#000000" font-family="sans-serif" font-size="14" lengthAdjust="spacingAndGlyphs" textLength="85" x="226.801" y="487.4951">The internet</text><!--entity webApp--><rect fill="#FEFECE" filter="url(#fv1lrzt)" height="36.2969" style="stroke: #A80036; stroke-width: 1.5;" width="76" x="231.301" y="656"/><rect fill="#FEFECE" height="5" style="stroke: #A80036; stroke-width: 1.5;" width="10" x="226.301" y="661"/><rect fill="#FEFECE" height="5" style="stroke: #A80036; stroke-width: 1.5;" width="10" x="226.301" y="682.2969"/><text fill="#000000" font-family="sans-serif" font-size="14" lengthAdjust="spacingAndGlyphs" textLength="56" x="241.301" y="678.9951">webApp</text><!--entity SQL--><rect fill="#FEFECE" filter="url(#fv1lrzt)" height="36.2969" style="stroke: #A80036; stroke-width: 1.5;" width="47" x="239.801" y="805"/><rect fill="#FEFECE" height="5" style="stroke: #A80036; stroke-width: 1.5;" width="10" x="234.801" y="810"/><rect fill="#FEFECE" height="5" style="stroke: #A80036; stroke-width: 1.5;" width="10" x="234.801" y="831.2969"/><text fill="#000000" font-family="sans-serif" font-size="14" lengthAdjust="spacingAndGlyphs" textLength="27" x="249.801" y="827.9951">SQL</text><polygon fill="#FBFB77" filter="url(#fv1lrzt)" points="184.301,23.5,184.301,63.7656,496.301,63.7656,496.301,33.5,486.301,23.5,184.301,23.5" style="stroke: #A80036; stroke-width: 1.0;"/><line style="stroke: #A80036; stroke-width: 1.0;" x1="486.301" x2="486.301" y1="23.5" y2="33.5"/><line style="stroke: #A80036; stroke-width: 1.0;" x1="496.301" x2="486.301" y1="33.5" y2="33.5"/><text fill="#000000" font-family="sans-serif" font-size="13" lengthAdjust="spacingAndGlyphs" textLength="234" x="190.301" y="40.5669">runs Android with locked webbrowser</text><text fill="#000000" font-family="sans-serif" font-size="13" lengthAdjust="spacingAndGlyphs" textLength="291" x="190.301" y="55.6997">This means only the webbrowser is accessible</text><polygon fill="#FBFB77" filter="url(#fv1lrzt)" points="356.801,455,356.801,510.3984,577.801,510.3984,577.801,465,567.801,455,356.801,455" style="stroke: #A80036; stroke-width: 1.0;"/><polygon fill="#FBFB77" points="356.801,455,356.801,510.3984,577.801,510.3984,577.801,465,567.801,455,449.66,455,382.067,376.033,441.66,455,356.801,455" style="stroke: #A80036; stroke-width: 1.0;"/><line style="stroke: #A80036; stroke-width: 1.0;" x1="567.801" x2="567.801" y1="455" y2="465"/><line style="stroke: #A80036; stroke-width: 1.0;" x1="577.801" x2="567.801" y1="465" y2="465"/><text fill="#000000" font-family="sans-serif" font-size="13" lengthAdjust="spacingAndGlyphs" textLength="103" x="362.801" y="472.0669">'hidden' network</text><text fill="#000000" font-family="sans-serif" font-size="13" lengthAdjust="spacingAndGlyphs" textLength="105" x="362.801" y="487.1997">strong password</text><text fill="#000000" font-family="sans-serif" font-size="13" lengthAdjust="spacingAndGlyphs" textLength="200" x="362.801" y="502.3325">both will prevent packet sniffing</text><polygon fill="#FBFB77" filter="url(#fv1lrzt)" points="531.801,8,531.801,78.5313,956.801,78.5313,956.801,18,946.801,8,531.801,8" style="stroke: #A80036; stroke-width: 1.0;"/><line style="stroke: #A80036; stroke-width: 1.0;" x1="946.801" x2="946.801" y1="8" y2="18"/><line style="stroke: #A80036; stroke-width: 1.0;" x1="956.801" x2="946.801" y1="18" y2="18"/><text fill="#000000" font-family="sans-serif" font-size="13" lengthAdjust="spacingAndGlyphs" textLength="359" x="537.801" y="25.0669">Pros: single device per location, cheap, easiest to setup.</text><text fill="#000000" font-family="sans-serif" font-size="13" lengthAdjust="spacingAndGlyphs" textLength="227" x="537.801" y="40.1997">cons: Usage of third party software.</text><text fill="#000000" font-family="sans-serif" font-size="13" lengthAdjust="spacingAndGlyphs" textLength="0" x="541.801" y="55.3325"/><text fill="#000000" font-family="sans-serif" font-size="13" lengthAdjust="spacingAndGlyphs" textLength="404" x="537.801" y="70.4653">This is the most secure we can get without ridiculous expenses.</text><path d="M340.301,63.797 C340.301,88.2565 340.301,131.808 340.301,169.7326 C340.301,172.1029 340.301,174.4512 340.301,176.7715 " fill="none" style="stroke: #A80036; stroke-width: 1.0; stroke-dasharray: 7.0,7.0;"/><path d="M416.843,265.58 C406.258,285.515 390.607,314.991 379.959,335.045 " fill="none" style="stroke: #A80036; stroke-width: 1.0;"/><polygon fill="#A80036" points="377.5,339.676,385.2547,333.6044,379.8457,335.2604,378.1897,329.8513,377.5,339.676" style="stroke: #A80036; stroke-width: 1.0;"/><polygon fill="#A80036" points="419.189,261.162,411.4358,267.2356,416.8444,265.5782,418.5018,270.9869,419.189,261.162" style="stroke: #A80036; stroke-width: 1.0;"/><path d="M351.323,380.009 C333.229,402.398 304.735,437.655 286.542,460.167 " fill="none" style="stroke: #A80036; stroke-width: 1.0;"/><polygon fill="#A80036" points="283.269,464.217,292.0373,459.7317,286.4119,460.3283,285.8154,454.703,283.269,464.217" style="stroke: #A80036; stroke-width: 1.0;"/><polygon fill="#A80036" points="354.536,376.033,345.7677,380.5183,351.3931,379.9217,351.9896,385.547,354.536,376.033" style="stroke: #A80036; stroke-width: 1.0;"/><path d="M269.301,506.012 C269.301,542.525 269.301,614.231 269.301,650.643 " fill="none" style="stroke: #A80036; stroke-width: 1.0;"/><polygon fill="#A80036" points="269.301,655.751,273.301,646.751,269.301,650.751,265.301,646.751,269.301,655.751" style="stroke: #A80036; stroke-width: 1.0;"/><polygon fill="#A80036" points="269.301,500.651,265.301,509.651,269.301,505.651,273.301,509.651,269.301,500.651" style="stroke: #A80036; stroke-width: 1.0;"/><path d="M268.601,692.15 C267.513,718.816 265.415,770.212 264.211,799.715 " fill="none" style="stroke: #A80036; stroke-width: 1.0;"/><polygon fill="#A80036" points="263.997,804.959,268.3589,796.1287,264.1999,799.9631,260.3654,795.8041,263.997,804.959" style="stroke: #A80036; stroke-width: 1.0;"/><text fill="#000000" font-family="sans-serif" font-size="13" lengthAdjust="spacingAndGlyphs" textLength="35" x="269.301" y="735.0669">DATA</text><path d="M470.418,261.043 C492.823,271.919 519.37,287.951 537.301,309 C597.598,379.776 644.183,430.908 595.301,510 C531.179,613.752 378.806,653.673 307.426,667.067 " fill="none" style="stroke: #A80036; stroke-width: 1.0; stroke-dasharray: 7.0,7.0;"/><text fill="#000000" font-family="sans-serif" font-size="13" lengthAdjust="spacingAndGlyphs" textLength="145" x="613.301" y="421.0669">Secure SSL encryption</text><path d="M337.289,362.789 C259.451,373.001 59.2677,403.829 20.3013,455 C-16.7085,503.602 25.0869,557.6335 76.6066,599.746 C102.3664,620.8023 130.5572,638.8788 152.544,651.8069 C163.5374,658.271 172.9798,663.448 179.7917,667.0669 C180.6432,667.5193 181.4536,667.9473 182.2208,668.3504 C182.4126,668.4512 182.6017,668.5504 182.7881,668.6481 " fill="none" style="stroke: #A80036; stroke-width: 1.0; stroke-dasharray: 7.0,7.0;"/><text fill="#000000" font-family="sans-serif" font-size="13" lengthAdjust="spacingAndGlyphs" textLength="177" x="21.3013" y="487.0669">optional Secure VPN Tunnel</text></g></svg>